<svg xmlns="http://www.w3.org/2000/svg" width="26.611" height="28.704" viewBox="0 0 26.611 28.704">
  <g id="Group_39881" data-name="Group 39881" transform="translate(1131.697 -3228.543)">
    <g id="Group_39836" data-name="Group 39836" transform="translate(-1131.697 3228.544)">
      <path id="Path_44485" data-name="Path 44485" d="M51.176,593.37,50,593.148l.222-1.131a1.658,1.658,0,0,1,1.55-1.149h7.2a1.657,1.657,0,0,1,1.55,1.149l.024.089.2,1.042-1.175.223-.187-.99a.469.469,0,0,0-.41-.318h-7.2a.468.468,0,0,0-.409.318Z" transform="translate(-44.908 -590.867)" fill="#999"/>
      <path id="Path_44486" data-name="Path 44486" d="M49.015,613.626H47.221a1.2,1.2,0,0,1-1.2-1.2v-1.794h1.2v1.794h1.794v-1.2h1.2v1.2a1.2,1.2,0,0,1-1.2,1.2" transform="translate(-42.736 -601.666)" fill="#999"/>
      <rect id="Rectangle_7985" data-name="Rectangle 7985" width="2.392" height="1.196" transform="translate(4.485 6.577)" fill="#999"/>
      <path id="Path_44487" data-name="Path 44487" d="M45.358,598.356l-1.02-1.021h-.948v-1.2h1.444L46.2,597.51Z" transform="translate(-41.296 -593.747)" fill="#999"/>
      <path id="Path_44488" data-name="Path 44488" d="M59.244,600.645h-9.85l-1.322-.661.535-1.07,1.069.535h9.286l1.069-.535.535,1.07Z" transform="translate(-43.853 -595.263)" fill="#999"/>
      <path id="Path_44489" data-name="Path 44489" d="M60.255,605.611H44.707v-4.144c0-.153,0-.616,1.334-2.218l.919.765a8.7,8.7,0,0,0-1.058,1.5v2.9H59.059v-2.9a8.727,8.727,0,0,0-1.058-1.5l.919-.765c1.334,1.6,1.334,2.066,1.334,2.218ZM45.9,601.537Z" transform="translate(-42.016 -595.446)" fill="#999"/>
      <path id="Path_44490" data-name="Path 44490" d="M71.419,613.626H69.625a1.2,1.2,0,0,1-1.2-1.2v-1.2h1.2v1.2h1.794v-1.794h1.2v1.794a1.2,1.2,0,0,1-1.2,1.2" transform="translate(-54.974 -601.666)" fill="#999"/>
      <rect id="Rectangle_7986" data-name="Rectangle 7986" width="2.392" height="1.196" transform="translate(14.053 6.577)" fill="#999"/>
      <path id="Path_44491" data-name="Path 44491" d="M74.932,598.356l-.845-.845,1.371-1.371H76.9v1.2h-.948Z" transform="translate(-58.064 -593.747)" fill="#999"/>
      <path id="Path_44492" data-name="Path 44492" d="M65.707,637.737l-.845-.845,1.969-1.969-1.969-1.969.845-.845,2.815,2.815Z" transform="translate(-53.025 -613.395)" fill="#999"/>
      <path id="Path_44493" data-name="Path 44493" d="M53.427,618.752H43.261a4.485,4.485,0,1,1,0-8.97H60.6a3.588,3.588,0,1,0,0-7.176H58.211v-1.2H60.6a4.784,4.784,0,0,1,0,9.568H43.261a3.289,3.289,0,1,0,0,6.578H53.427Z" transform="translate(-38.776 -596.626)" fill="#999"/>
      <path id="Path_44494" data-name="Path 44494" d="M81.12,638.288h0a.6.6,0,0,1-.569-.413,8.831,8.831,0,0,0-2.176-3.4,5.9,5.9,0,0,1-2.039-4.322,4.79,4.79,0,1,1,9.568,0,5.9,5.9,0,0,1-2.039,4.322,8.831,8.831,0,0,0-2.176,3.4.6.6,0,0,1-.569.413m0-11.96a3.631,3.631,0,0,0-3.588,3.826c0,1.617.762,2.456,1.728,3.518a11.767,11.767,0,0,1,1.86,2.483,11.783,11.783,0,0,1,1.86-2.483c.966-1.062,1.728-1.9,1.728-3.518a3.631,3.631,0,0,0-3.588-3.826" transform="translate(-59.293 -609.584)" fill="#999"/>
    </g>
  </g>
</svg>
