<svg xmlns="http://www.w3.org/2000/svg" xmlns:xlink="http://www.w3.org/1999/xlink" width="22" height="32" viewBox="0 0 22 32">
  <defs>
    <clipPath id="clip-path">
      <rect id="Rectangle_7996" data-name="Rectangle 7996" width="22" height="32" transform="translate(-825 7514)" fill="#fff" opacity="0.24"/>
    </clipPath>
  </defs>
  <g id="Mask_Group_449" data-name="Mask Group 449" transform="translate(825 -7514)" clip-path="url(#clip-path)">
    <g id="Group_39884" data-name="Group 39884" transform="translate(310.521 4128)">
      <path id="Path_44519" data-name="Path 44519" d="M124.377,900.256H115.7a.4.4,0,0,1-.252-.091,3.108,3.108,0,0,1-.944-2.588v-.023a.4.4,0,0,1,.262-.439,17.489,17.489,0,0,1,10.534,0,.4.4,0,0,1,.263.317,3.2,3.2,0,0,1-.929,2.733.4.4,0,0,1-.252.091m-8.524-.791h8.372a2.343,2.343,0,0,0,.566-1.685,16.854,16.854,0,0,0-9.505-.007,2.347,2.347,0,0,0,.566,1.691" transform="translate(-1245.541 2492.697)" fill="#56c198"/>
      <path id="Path_44520" data-name="Path 44520" d="M126.227,909.237h-8.7a.4.4,0,0,1-.4-.4V907.26a.4.4,0,0,1,.4-.4h8.7a.4.4,0,0,1,.4.4v1.581a.4.4,0,0,1-.4.4m-8.3-.79h7.906v-.791h-7.906Z" transform="translate(-1247.391 2485.297)" fill="#56c198"/>
      <path id="Path_44521" data-name="Path 44521" d="M120.029,921.632a5.534,5.534,0,0,1-3.993-9.365.4.4,0,1,1,.57.547,4.744,4.744,0,1,0,6.846,0,.4.4,0,1,1,.57-.547,5.534,5.534,0,0,1-3.993,9.366" transform="translate(-1245.542 2481.598)" fill="#56c198"/>
      <path id="Path_44522" data-name="Path 44522" d="M119.87,956.752H101.686a.4.4,0,0,1-.4-.4V952.4a5.936,5.936,0,0,1,5.93-5.929.4.4,0,0,1,.354.219l3.2,6.408,3.2-6.408a.4.4,0,0,1,.354-.219,5.936,5.936,0,0,1,5.93,5.929v3.953a.4.4,0,0,1-.4.4m-17.788-.791h17.393V952.4a5.145,5.145,0,0,0-4.9-5.133l-3.446,6.891a.4.4,0,0,1-.707,0l-3.446-6.891a5.145,5.145,0,0,0-4.9,5.133Z" transform="translate(-1236.291 2457.547)" fill="#56c198"/>
      <path id="Path_44523" data-name="Path 44523" d="M147.1,965.479h-3.162a.4.4,0,0,1-.4-.4v-2.372a.4.4,0,0,1,.4-.4H147.1a.4.4,0,0,1,.4.4v2.372a.4.4,0,0,1-.4.4m-2.767-.791H146.7v-1.581h-2.372Z" transform="translate(-1265.891 2446.448)" fill="#56c198"/>
      <path id="Path_44524" data-name="Path 44524" d="M130.465,948.845h-2.372a.4.4,0,0,1-.4-.4v-1.581a.4.4,0,0,1,.4-.4h2.372a.4.4,0,0,1,.4.4v1.581a.4.4,0,0,1-.4.4m-1.977-.791h1.581v-.791h-1.581Z" transform="translate(-1254.792 2457.548)" fill="#56c198"/>
      <path id="Path_44525" data-name="Path 44525" d="M134.51,955.019a.4.4,0,0,1-.36-.231l-1.135-2.474a.4.4,0,1,1,.719-.33l1.135,2.474a.4.4,0,0,1-.359.56" transform="translate(-1258.492 2453.848)" fill="#56c198"/>
      <path id="Path_44526" data-name="Path 44526" d="M126.942,955.019a.4.4,0,0,1-.359-.56l1.135-2.474a.4.4,0,1,1,.719.33l-1.135,2.474a.4.4,0,0,1-.36.231" transform="translate(-1253.985 2453.848)" fill="#56c198"/>
    </g>
  </g>
</svg>
