<svg xmlns="http://www.w3.org/2000/svg" width="20" height="20.434" viewBox="0 0 20 20.434">
  <g id="Group_39882" data-name="Group 39882" transform="translate(1135 -3343.826)">
    <circle id="Ellipse_33" data-name="Ellipse 33" cx="10" cy="10" r="10" transform="translate(-1135 3344.26)" fill="#56c198"/>
    <path id="Path_37797" data-name="Path 37797" d="M85.47,829l-3.865,4.63-1.681-1.742a.937.937,0,0,0-1.348,1.3l1.822,1.887.788.816a.674.674,0,0,0,1-.036l.727-.871,3.994-4.786A.937.937,0,1,0,85.47,829" transform="translate(-1207.719 2521.879)" fill="#fbfbfb"/>
    <path id="Path_37798" data-name="Path 37798" d="M66.973,824.378a8.662,8.662,0,1,1,8.662,8.662,8.662,8.662,0,0,1-8.662-8.662m-1.134,0a9.8,9.8,0,1,0,9.8-9.8,9.808,9.808,0,0,0-9.8,9.8" transform="translate(-1200.433 2529.245)" fill="#56c198"/>
  </g>
</svg>
