<svg xmlns="http://www.w3.org/2000/svg" xmlns:xlink="http://www.w3.org/1999/xlink" width="40" height="40" viewBox="0 0 40 40">
  <defs>
    <clipPath id="clip-path">
      <rect id="Rectangle_7994" data-name="Rectangle 7994" width="40" height="40" transform="translate(-741 7592)" fill="#fff"/>
    </clipPath>
  </defs>
  <g id="Mask_Group_451" data-name="Mask Group 451" transform="translate(741 -7592)" clip-path="url(#clip-path)">
    <g id="Group_39886" data-name="Group 39886" transform="translate(-2777.105 4166.738)">
      <g id="Group_39858" data-name="Group 39858" transform="translate(2042.09 3431.262)">
        <path id="Path_44527" data-name="Path 44527" d="M62.738,1094.057a.8.8,0,0,1,.637.53c.4.861.715,1.749,1.093,2.617a.773.773,0,0,1,.067.57,5.055,5.055,0,0,1-1.033,1.417.437.437,0,0,0-.014.529,8.613,8.613,0,0,0,4.869,4.207.483.483,0,0,0,.58-.106q.6-.666,1.125-1.384c.3-.4.57-.285.966-.119l2.543,1.225c.2.086.4.232.378.464a3.053,3.053,0,0,1-3.027,3.114,12.374,12.374,0,0,1-9.075-5.3,11.527,11.527,0,0,1-1.762-3.007,4.225,4.225,0,0,1,.053-3.067c.642-1.292,1.206-1.789,2.624-1.71Zm-3.908-4.941a13.943,13.943,0,1,1,1.372,23.673l-7.419,1.921,1.954-7.153c.04-.087-.019-.159-.066-.225a13.91,13.91,0,0,1-1.657-8.611,14.111,14.111,0,0,1,5.8-9.6m3.292.835a11.634,11.634,0,0,0-5.313,4.815,11.447,11.447,0,0,0-1.523,5.452,11.574,11.574,0,0,0,1.875,6.624c.067.119.185.245.132.4l-1.125,4.133c1.41-.357,2.822-.742,4.239-1.1.179-.067.331.08.476.159a11.591,11.591,0,0,0,8.147,1.464A11.567,11.567,0,1,0,62.1,1089.98Z" transform="translate(-52.783 -1086.585)" fill="#fff"/>
      </g>
    </g>
  </g>
</svg>
