<svg xmlns="http://www.w3.org/2000/svg" xmlns:xlink="http://www.w3.org/1999/xlink" width="40" height="40" viewBox="0 0 40 40">
  <defs>
    <clipPath id="clip-path">
      <rect id="Rectangle_7996" data-name="Rectangle 7996" width="40" height="40" transform="translate(-842 7592)" fill="#fff" opacity="0.33"/>
    </clipPath>
  </defs>
  <g id="Mask_Group_453" data-name="Mask Group 453" transform="translate(842 -7592)" clip-path="url(#clip-path)">
    <g id="Group_39884" data-name="Group 39884" transform="translate(-3186.682 4166.565)">
      <g id="Group_39856" data-name="Group 39856" transform="translate(2350.682 3431.435)">
        <path id="Path_44473" data-name="Path 44473" d="M649.207,1088.8h-1.948v-.244a1.048,1.048,0,1,0-2.1,0v.244h-4.984v-.244a1.048,1.048,0,1,0-2.1,0v.244H633.1v-.244a1.048,1.048,0,1,0-2.1,0v.244h-1.948a3.758,3.758,0,0,0-3.754,3.755v19.324a3.759,3.759,0,0,0,3.754,3.755h20.151a3.759,3.759,0,0,0,3.755-3.755v-19.324a3.759,3.759,0,0,0-3.755-3.755m2.515,23.075a2.518,2.518,0,0,1-2.515,2.515h-20.15a2.518,2.518,0,0,1-2.515-2.515v-15.821h25.182Zm-25.182-17.067v-2.256a2.518,2.518,0,0,1,2.515-2.515H631v1.39a1.048,1.048,0,1,0,2.1,0v-1.39h4.984v1.39a1.048,1.048,0,1,0,2.1,0v-1.39h4.986v1.39a1.048,1.048,0,1,0,2.1,0v-1.39h1.948a2.518,2.518,0,0,1,2.515,2.515v2.256Z" transform="translate(-625.3 -1087.512)" fill="#fff"/>
        <path id="Path_44474" data-name="Path 44474" d="M644.909,1106.48h-2.623a.248.248,0,0,0-.248.248v2.622a.248.248,0,0,0,.248.248h2.623a.249.249,0,0,0,.248-.248v-2.622a.249.249,0,0,0-.248-.248" transform="translate(-632.266 -1095.406)" fill="#fff"/>
        <path id="Path_44475" data-name="Path 44475" d="M653.477,1106.48h-2.623a.248.248,0,0,0-.248.248v2.622a.248.248,0,0,0,.248.248h2.623a.248.248,0,0,0,.248-.248v-2.622a.248.248,0,0,0-.248-.248" transform="translate(-635.834 -1095.406)" fill="#fff"/>
        <path id="Path_44476" data-name="Path 44476" d="M662.048,1106.48h-2.622a.248.248,0,0,0-.248.248v2.623a.249.249,0,0,0,.248.248h2.622a.249.249,0,0,0,.248-.248v-2.622a.248.248,0,0,0-.248-.248" transform="translate(-639.401 -1095.406)" fill="#fff"/>
        <path id="Path_44477" data-name="Path 44477" d="M636.335,1114.77h-2.623a.248.248,0,0,0-.248.248v2.622a.248.248,0,0,0,.248.248h2.623a.248.248,0,0,0,.248-.248v-2.622a.248.248,0,0,0-.248-.248" transform="translate(-628.699 -1098.855)" fill="#fff"/>
        <path id="Path_44478" data-name="Path 44478" d="M644.909,1114.77h-2.623a.248.248,0,0,0-.248.248v2.622a.248.248,0,0,0,.248.248h2.623a.248.248,0,0,0,.248-.248v-2.622a.248.248,0,0,0-.248-.248" transform="translate(-632.266 -1098.855)" fill="#fff"/>
        <path id="Path_44479" data-name="Path 44479" d="M653.477,1114.77h-2.623a.248.248,0,0,0-.248.248v2.622a.248.248,0,0,0,.248.248h2.623a.248.248,0,0,0,.248-.248v-2.622a.248.248,0,0,0-.248-.248" transform="translate(-635.834 -1098.855)" fill="#fff"/>
        <path id="Path_44480" data-name="Path 44480" d="M662.048,1114.77h-2.622a.248.248,0,0,0-.248.248v2.622a.248.248,0,0,0,.248.248h2.622a.248.248,0,0,0,.248-.248v-2.622a.248.248,0,0,0-.248-.248" transform="translate(-639.401 -1098.855)" fill="#fff"/>
        <path id="Path_44481" data-name="Path 44481" d="M636.335,1123.05h-2.623a.249.249,0,0,0-.248.248v2.623a.248.248,0,0,0,.248.248h2.623a.248.248,0,0,0,.248-.248v-2.62a.247.247,0,0,0-.248-.248" transform="translate(-628.699 -1102.303)" fill="#fff"/>
        <path id="Path_44482" data-name="Path 44482" d="M644.909,1123.05h-2.623a.248.248,0,0,0-.248.248v2.623a.248.248,0,0,0,.248.248h2.623a.248.248,0,0,0,.248-.248v-2.62a.249.249,0,0,0-.248-.248" transform="translate(-632.266 -1102.303)" fill="#fff"/>
        <path id="Path_44483" data-name="Path 44483" d="M653.477,1123.05h-2.623a.248.248,0,0,0-.248.248v2.623a.248.248,0,0,0,.248.248h2.623a.248.248,0,0,0,.248-.248v-2.62a.248.248,0,0,0-.248-.248" transform="translate(-635.834 -1102.303)" fill="#fff"/>
        <path id="Path_44484" data-name="Path 44484" d="M662.048,1123.05h-2.622a.249.249,0,0,0-.248.248v2.623a.248.248,0,0,0,.248.248h2.622a.248.248,0,0,0,.248-.248v-2.62a.248.248,0,0,0-.248-.248" transform="translate(-639.401 -1102.303)" fill="#fff"/>
      </g>
    </g>
  </g>
</svg>
