<svg xmlns="http://www.w3.org/2000/svg" xmlns:xlink="http://www.w3.org/1999/xlink" width="40" height="40" viewBox="0 0 40 40">
  <defs>
    <clipPath id="clip-path">
      <rect id="Rectangle_7995" data-name="Rectangle 7995" width="40" height="40" transform="translate(-793 7592)" fill="#fff"/>
    </clipPath>
  </defs>
  <g id="Mask_Group_452" data-name="Mask Group 452" transform="translate(793 -7592)" clip-path="url(#clip-path)">
    <g id="Group_39857" data-name="Group 39857" transform="translate(183.957 4117.562)">
      <g id="Group_39853" data-name="Group 39853" transform="translate(-970.964 3480.438)">
        <path id="Path_44469" data-name="Path 44469" d="M377.994,1127.53h0" transform="translate(-353.658 -1103.841)" fill="#fff"/>
        <path id="Path_44470" data-name="Path 44470" d="M359.894,1106.806a3.463,3.463,0,0,0-.454-.4,2.879,2.879,0,0,0-.49-.287,2.587,2.587,0,0,0-.519-.177,2.523,2.523,0,0,0-1.085,0,2.6,2.6,0,0,0-.519.174,2.963,2.963,0,0,0-.5.286,3.477,3.477,0,0,0-.468.4l-.469.468-.47.467-.469.468-.469.468-.116-.061-.115-.06-.114-.059-.112-.058-.158-.079-.153-.078-.143-.079c-.047-.026-.091-.053-.135-.079q-.659-.415-1.29-.9t-1.239-1.038q-.608-.554-1.2-1.181t-1.163-1.334c-.186-.234-.356-.46-.513-.679s-.3-.431-.432-.638-.251-.415-.36-.612-.208-.4-.3-.6c.122-.111.242-.224.359-.337s.234-.226.348-.34l.338-.34.332-.337.125-.126.125-.127.125-.126.125-.127a3.36,3.36,0,0,0,.7-.993,2.532,2.532,0,0,0,0-2.125,3.363,3.363,0,0,0-.7-.993l-.4-.406-.406-.406-.406-.406-.4-.406-.139-.139-.139-.14-.138-.142-.136-.142-.271-.278c-.091-.093-.184-.187-.277-.279s-.187-.186-.282-.277-.19-.183-.286-.271a3.42,3.42,0,0,0-.452-.378,2.936,2.936,0,0,0-.488-.273,2.651,2.651,0,0,0-.519-.167,2.555,2.555,0,0,0-.535-.056,2.583,2.583,0,0,0-.538.056,2.716,2.716,0,0,0-.519.167,3.027,3.027,0,0,0-.5.273,3.541,3.541,0,0,0-.464.378h0l-.5.509-.505.51-.5.51-.5.508a4.666,4.666,0,0,0-.51.6,4.244,4.244,0,0,0-.646,1.382,4.643,4.643,0,0,0-.135.778,7.772,7.772,0,0,0,0,1.271,9.489,9.489,0,0,0,.176,1.186c.079.377.175.732.276,1.06s.208.623.3.891c.241.65.511,1.287.815,1.918s.64,1.256,1.015,1.879.785,1.245,1.237,1.876.943,1.263,1.48,1.907a29.045,29.045,0,0,0,2.05,2.206,28.124,28.124,0,0,0,2.24,1.955,27.659,27.659,0,0,0,5.02,3.127c.341.162.712.332,1.107.5s.815.326,1.256.47a13.074,13.074,0,0,0,1.381.373,10.52,10.52,0,0,0,1.484.207h.375a5.13,5.13,0,0,0,.987-.092,4.465,4.465,0,0,0,.9-.277,4.3,4.3,0,0,0,.814-.461,4.761,4.761,0,0,0,.726-.643v-.008l.006-.007.006-.006.005-.008c.077-.093.158-.185.241-.275s.168-.18.255-.268.176-.177.268-.265l.277-.269.192-.185.194-.19.194-.194c.064-.065.129-.131.193-.2a3.666,3.666,0,0,0,.388-.476,3.12,3.12,0,0,0,.281-.506,2.812,2.812,0,0,0,.17-.529,2.618,2.618,0,0,0,.057-.544,2.591,2.591,0,0,0-.058-.546,2.675,2.675,0,0,0-.174-.526,2.948,2.948,0,0,0-.286-.5,3.469,3.469,0,0,0-.4-.466l-.816-.818-.815-.818-.816-.818Zm2.126,6.256c-.058.062-.116.123-.175.184l-.178.179-.183.179-.189.184c-.1.091-.193.185-.29.279s-.194.192-.29.29-.191.2-.286.3-.189.207-.28.317a3.238,3.238,0,0,1-.472.415,2.707,2.707,0,0,1-.519.295,2.786,2.786,0,0,1-.584.174,3.559,3.559,0,0,1-.655.057h-.273a8.925,8.925,0,0,1-1.3-.183,11.506,11.506,0,0,1-1.223-.334c-.392-.13-.768-.275-1.122-.425s-.688-.3-1-.449a26.1,26.1,0,0,1-4.725-2.946,26.548,26.548,0,0,1-2.111-1.842,27.292,27.292,0,0,1-1.932-2.076q-.76-.915-1.4-1.8c-.427-.594-.814-1.18-1.165-1.764s-.668-1.172-.954-1.764-.538-1.186-.762-1.792c-.138-.369-.254-.719-.35-1.052a9.74,9.74,0,0,1-.223-.955,7.152,7.152,0,0,1-.1-.88,6.234,6.234,0,0,1,.01-.83,3.073,3.073,0,0,1,.084-.5,2.65,2.65,0,0,1,.408-.879,3.05,3.05,0,0,1,.328-.386l.506-.506.506-.506.506-.506.506-.506a2.057,2.057,0,0,1,.221-.182,1.576,1.576,0,0,1,.226-.132,1.221,1.221,0,0,1,.228-.081.958.958,0,0,1,.5.01,1.186,1.186,0,0,1,.237.1,1.559,1.559,0,0,1,.2.134,1.937,1.937,0,0,1,.163.145h0l.27.256c.09.086.177.173.266.263l.266.269.269.276.139.143.141.143.142.144.142.146.4.406.406.406.4.406.4.406a1.9,1.9,0,0,1,.355.465.934.934,0,0,1,0,.912,1.888,1.888,0,0,1-.355.464l-.128.13c-.043.044-.084.086-.128.129l-.127.128c-.043.043-.085.085-.128.126-.125.128-.248.254-.372.378s-.245.245-.367.365-.246.239-.372.357-.252.234-.381.351l-.008.008-.008.007-.007.006-.005.008a1.457,1.457,0,0,0-.279.379,1.1,1.1,0,0,0-.1.36,1.182,1.182,0,0,0,.008.328,1.909,1.909,0,0,0,.068.281v.054c.1.255.222.507.351.759s.271.5.429.76.329.519.519.784.4.542.623.83h0q.615.756,1.245,1.432t1.29,1.273q.657.6,1.34,1.12t1.4.974c.061.038.121.076.184.11l.184.1.183.094.181.09.158.08.153.078.143.078c.047.027.091.053.135.08l.018.009.018.011.018.01.018.01a1.578,1.578,0,0,0,.149.065,1.253,1.253,0,0,0,.146.047,1.169,1.169,0,0,0,.627-.013,1.225,1.225,0,0,0,.264-.117,1.364,1.364,0,0,0,.19-.137c.051-.043.089-.081.114-.1l.509-.509.507-.508.508-.508.507-.507a2.1,2.1,0,0,1,.172-.156,1.647,1.647,0,0,1,.208-.143,1.194,1.194,0,0,1,.243-.1.937.937,0,0,1,.27-.042.927.927,0,0,1,.264.039,1.126,1.126,0,0,1,.234.1,1.4,1.4,0,0,1,.2.139,1.618,1.618,0,0,1,.16.152l.822.821.821.822.821.821.821.821a1.762,1.762,0,0,1,.345.458,1.028,1.028,0,0,1,.115.463,1.05,1.05,0,0,1-.113.467,1.848,1.848,0,0,1-.34.471" transform="translate(-337.685 -1089.367)" fill="#fff"/>
        <path id="Path_44471" data-name="Path 44471" d="M362.393,1098.347a7.507,7.507,0,0,1,3.2,1.355,7.847,7.847,0,0,1,.9.772,7.733,7.733,0,0,1,.771.9,7.551,7.551,0,0,1,1.069,2.063,7.661,7.661,0,0,1,.286,1.141.789.789,0,0,0,.274.479.808.808,0,0,0,.519.186h.137a.8.8,0,0,0,.649-.606.816.816,0,0,0,.01-.321,9.132,9.132,0,0,0-1.642-3.876,9.417,9.417,0,0,0-2.015-2.016,9.132,9.132,0,0,0-3.877-1.642.824.824,0,0,0-.32.011.806.806,0,0,0-.476,1.242.78.78,0,0,0,.519.327" transform="translate(-347.218 -1091.648)" fill="#fff"/>
        <path id="Path_44472" data-name="Path 44472" d="M375.446,1100.712a15.178,15.178,0,0,0-.569-2.268,15.01,15.01,0,0,0-2.133-4.113,15.515,15.515,0,0,0-3.321-3.321,15.029,15.029,0,0,0-6.381-2.7.78.78,0,0,0-.595.135.8.8,0,0,0,.034,1.33.819.819,0,0,0,.3.115,13.445,13.445,0,0,1,5.708,2.414,13.943,13.943,0,0,1,1.6,1.37,13.765,13.765,0,0,1,1.373,1.6,13.358,13.358,0,0,1,2.412,5.7.792.792,0,0,0,.275.481.809.809,0,0,0,.239.136.8.8,0,0,0,.276.049h.138a.775.775,0,0,0,.3-.109.781.781,0,0,0,.357-.8" transform="translate(-347.367 -1088.299)" fill="#fff"/>
      </g>
    </g>
  </g>
</svg>
