<svg xmlns="http://www.w3.org/2000/svg" xmlns:xlink="http://www.w3.org/1999/xlink" width="32" height="32" viewBox="0 0 32 32">
  <defs>
    <clipPath id="clip-path">
      <rect id="Rectangle_7994" data-name="Rectangle 7994" width="32" height="32" transform="translate(1440 3891)" fill="#fff" opacity="0.24"/>
    </clipPath>
  </defs>
  <g id="Mask_Group_34" data-name="Mask Group 34" transform="translate(-1440 -3891)" clip-path="url(#clip-path)">
    <g id="Group_39885" data-name="Group 39885" transform="translate(1442.096 3894)">
      <path id="Path_44495" data-name="Path 44495" d="M247.117,904.779V902.8c0-.674,0-1.349,0-2.023,0-.063,0-.126.005-.189,0-.039,0-.079.009-.118,0-.023,0-.045.007-.067.006-.063,0,0,0,.026.037-.168.06-.335.109-.5q.035-.117.078-.232c.008-.022.055-.125.025-.063s0,0,.009-.017l.034-.073a3.39,3.39,0,0,1,.24-.417c.024-.035.048-.07.074-.1a.31.31,0,0,1,.038-.051s-.06.073-.025.033c.056-.064.108-.131.166-.194a3.857,3.857,0,0,1,.361-.337c.065-.054-.078.055.018-.014l.091-.065q.106-.072.217-.137c.07-.04.141-.078.213-.113l.1-.048c.077-.036-.016,0-.024.009a.463.463,0,0,1,.075-.03,3.428,3.428,0,0,1,.485-.147c.076-.017.152-.029.228-.042.051-.009.029-.026-.026,0a.277.277,0,0,1,.067-.007l.135-.011c.083,0,.165-.006.248-.006h10.577c.051,0,.1,0,.155,0l.119.008.067.006c.017,0,.115.007.037,0s.045.007.069.011q.065.011.131.025c.081.017.16.037.239.06s.156.048.233.077a.643.643,0,0,1,.121.047s-.087-.04-.039-.016c.024.012.049.022.074.033a3.388,3.388,0,0,1,.42.236l.105.073c.018.013.107.082.055.039s.052.043.064.053q.049.041.1.084a3.452,3.452,0,0,1,.34.358.288.288,0,0,1,.04.05s-.056-.076-.026-.033.044.06.066.091q.074.1.139.215t.116.212c.017.034.033.068.049.1a.253.253,0,0,1,.026.059c0-.041-.031-.079,0-.008a3.55,3.55,0,0,1,.151.483q.026.113.045.228a.427.427,0,0,1,.01.066c0-.011-.012-.114,0-.026,0,.045.009.09.012.135.006.08.008.161.009.242,0,.2,0,.4,0,.6v20.361a.474.474,0,1,0,.948,0V900.895a3.868,3.868,0,0,0-3.9-3.974H250.044a3.859,3.859,0,0,0-3.875,3.86c0,.219,0,.438,0,.656v3.342a.474.474,0,1,0,.948,0" transform="translate(-241.774 -896.92)" fill="#56c198"/>
      <path id="Path_44496" data-name="Path 44496" d="M246.643,977.933a.474.474,0,1,0-.474-.474.48.48,0,0,0,.474.474" transform="translate(-241.774 -952.636)" fill="#56c198"/>
      <path id="Path_44497" data-name="Path 44497" d="M240.924,977.93h20.023c.271,0,.541,0,.812,0h.036a.474.474,0,0,0,0-.948H241.771c-.271,0-.541,0-.812,0h-.036a.474.474,0,0,0,0,.948" transform="translate(-237.795 -952.632)" fill="#56c198"/>
      <path id="Path_44498" data-name="Path 44498" d="M268.516,915.31h-9.153c-.421,0-.843-.01-1.264,0h-.018l.474.474v-5.7c0-.255,0-.51,0-.765,0-.024,0-.048,0-.073l-.017.126a.577.577,0,0,1,.034-.123l-.048.113c.011-.025.025-.049.039-.073.036-.065-.089.1-.009.016s-.081.045-.016.01c.025-.014.048-.027.073-.039l-.113.048a.59.59,0,0,1,.122-.034l-.126.017a2.785,2.785,0,0,1,.309,0h8.084c.377,0,.754,0,1.131,0a.753.753,0,0,1,.078,0l-.126-.017a.592.592,0,0,1,.122.034l-.113-.048c.026.012.049.025.073.039.065.036-.1-.089-.016-.01s-.046-.081-.01-.016c.013.024.027.048.039.073l-.048-.113a.582.582,0,0,1,.034.123l-.017-.126a2.054,2.054,0,0,1,0,.225v5.511c0,.264-.005.529,0,.793v.011a.474.474,0,0,0,.948,0v-6.209c0-.081,0-.162,0-.243a.978.978,0,0,0-.662-.931,1.873,1.873,0,0,0-.614-.047h-9.087a1.1,1.1,0,0,0-.435.079.967.967,0,0,0-.586.9c0,.242,0,.483,0,.725v5.724a.481.481,0,0,0,.474.474h9.153c.421,0,.843.007,1.264,0h.018a.474.474,0,1,0,0-.948" transform="translate(-249.734 -904.874)" fill="#56c198"/>
      <path id="Path_44499" data-name="Path 44499" d="M267.087,924.3a2.762,2.762,0,0,1,.023-.351l-.017.126a2.684,2.684,0,0,1,.185-.676l-.048.114a2.644,2.644,0,0,1,.238-.438c.023-.035.048-.068.072-.1.045-.063-.076.094-.024.03l.033-.04q.079-.1.167-.183t.175-.16l.048-.039c.065-.053-.1.073-.03.024l.1-.072a2.66,2.66,0,0,1,.438-.238l-.113.048a2.694,2.694,0,0,1,.675-.185l-.126.017a2.735,2.735,0,0,1,.7,0l-.126-.017a2.694,2.694,0,0,1,.675.185l-.113-.048a2.674,2.674,0,0,1,.438.238l.1.072c.063.045-.094-.076-.03-.024l.04.032q.1.079.183.167t.16.175l.039.048c.053.066-.073-.1-.024-.03.024.034.049.067.072.1a2.655,2.655,0,0,1,.238.438l-.048-.114a2.686,2.686,0,0,1,.185.676l-.017-.126a2.762,2.762,0,0,1,.023.351.474.474,0,1,0,.948,0,3.067,3.067,0,0,0-.547-1.755,3.2,3.2,0,0,0-1.516-1.164,3.1,3.1,0,0,0-3.4.92,3.146,3.146,0,0,0-.734,2,.474.474,0,1,0,.948,0" transform="translate(-255.671 -913.818)" fill="#56c198"/>
      <path id="Path_44500" data-name="Path 44500" d="M280.876,917.466l1.242-1.651.173-.231a.476.476,0,0,0,.048-.365.474.474,0,0,0-.583-.331.555.555,0,0,0-.283.218l-1.241,1.651-.174.23a.476.476,0,0,0-.048.366.484.484,0,0,0,.218.283.477.477,0,0,0,.365.048.556.556,0,0,0,.283-.218" transform="translate(-265.312 -909.411)" fill="#56c198"/>
      <path id="Path_44501" data-name="Path 44501" d="M303.831,918.756h3.124a2.563,2.563,0,0,0,2.568-2.566c0-.455,0-.91,0-1.365V904.5a1.443,1.443,0,0,0-.042-.359l-.665-2.66-.733-2.93c-.02-.081-.037-.164-.061-.243-.068-.226-.221-.294-.4-.387l-1.46-.742-.35-.178a.474.474,0,0,0-.479.819l1.744.886.248.126-.218-.283.44,1.761.764,3.054.241.964c.014.055.024.111.041.164-.047-.146-.016-.153-.016-.059v10.419c0,.44,0,.881,0,1.321,0,.016,0,.031,0,.047q0,.058,0,.116c0,.029-.005.057-.008.086,0,.044-.027.049.006-.04-.033.089-.037.2-.065.288-.012.04-.025.08-.04.119s-.058.1.007-.01c-.009.015-.015.034-.023.051a2.086,2.086,0,0,1-.131.24c-.024.039-.051.075-.077.113-.054.078.059-.068.016-.02-.015.017-.029.035-.044.052a2.057,2.057,0,0,1-.19.194c-.033.03-.074.056-.1.088.072-.076.061-.045.031-.025l-.067.047a2.069,2.069,0,0,1-.237.137l-.062.029c-.047.023-.071,0,.024-.01a.8.8,0,0,0-.117.043,2.067,2.067,0,0,1-.286.073.355.355,0,0,0-.056.009c.108-.041.065-.008.012,0s-.087.007-.13.008h-3.2a.474.474,0,1,0,0,.948" transform="translate(-281.57 -896.937)" fill="#56c198"/>
      <path id="Path_44502" data-name="Path 44502" d="M311.4,902.9l-.737.574-1.175.915-.272.211a.469.469,0,0,0-.122.462l.294,1.175.468,1.873.108.431a.481.481,0,0,0,.457.348h2.609a.474.474,0,0,0,0-.948h-2.609l.457.348-.294-1.175-.468-1.873-.108-.431-.122.461.736-.574,1.175-.915.272-.212a.473.473,0,0,0,.139-.335.474.474,0,0,0-.474-.474.556.556,0,0,0-.335.139" transform="translate(-285.556 -900.987)" fill="#56c198"/>
      <path id="Path_44503" data-name="Path 44503" d="M231.744,936.538a5.676,5.676,0,0,0,.161,2,4.731,4.731,0,0,0,1,1.846,4.863,4.863,0,0,0,7.014.3,4.767,4.767,0,0,0,1.035-1.434,5.375,5.375,0,0,0,.463-1.671,7.322,7.322,0,0,0-.441-3.225,12.341,12.341,0,0,0-1.6-3.048,12.1,12.1,0,0,0-2.13-2.345,5.554,5.554,0,0,0-.46-.361.53.53,0,0,0-.43-.042,1.407,1.407,0,0,0-.466.3,9.78,9.78,0,0,0-.8.785,13.718,13.718,0,0,0-1.629,2.031,11.384,11.384,0,0,0-1.549,3.746,9.656,9.656,0,0,0-.173,1.127.476.476,0,0,0,.139.335.473.473,0,0,0,.67,0,.535.535,0,0,0,.139-.335c.01-.11.022-.22.037-.33-.005.042-.011.085-.017.126a10.478,10.478,0,0,1,.729-2.61l-.048.113a11.3,11.3,0,0,1,.77-1.5q.224-.366.475-.714.059-.081.119-.162l.057-.075.033-.043c-.078.108-.036.046-.016.022.081-.1.162-.205.247-.305.343-.4.709-.791,1.085-1.163.12-.118.241-.235.369-.345l.082-.068c.069-.056-.056.042-.05.038l.036-.026a.688.688,0,0,1,.12-.072l-.113.048a.212.212,0,0,1,.044-.013l-.126.017h.019l-.126-.017.009,0-.113-.048a.081.081,0,0,1,.02.014l.036.028s-.077-.06-.036-.027l.179.142q.12.1.237.2.2.172.388.354c.273.263.532.54.778.828q.193.225.374.459l.02.026c.034.044-.068-.089-.034-.044l.04.052.1.132q.089.12.176.242.357.506.666,1.044a11.805,11.805,0,0,1,.631,1.268l-.048-.113a8.763,8.763,0,0,1,.629,2.221c-.006-.042-.012-.084-.017-.126a5.95,5.95,0,0,1,.009,1.566c.005-.042.011-.084.017-.126a4.729,4.729,0,0,1-.321,1.188l.048-.113a4.534,4.534,0,0,1-.263.523c-.053.089-.109.177-.167.262q-.04.058-.082.115l-.048.064a.515.515,0,0,1,.036-.047c0,.005-.032.04-.038.047a4.336,4.336,0,0,1-.469.494c-.042.038-.085.075-.128.111l-.066.054-.028.022c-.042.034.1-.076.029-.022-.09.068-.182.133-.277.194a4.527,4.527,0,0,1-.682.36l.113-.048a4.509,4.509,0,0,1-1.117.307l.126-.017a4.419,4.419,0,0,1-1.152,0l.126.017a4.483,4.483,0,0,1-1.135-.309l.113.048a4.518,4.518,0,0,1-.557-.282q-.132-.079-.258-.166c-.04-.029-.08-.057-.12-.086l-.029-.022a.492.492,0,0,1,.047.037c-.016,0-.054-.043-.067-.054a4.355,4.355,0,0,1-.458-.431c-.071-.077-.137-.159-.2-.239-.033-.04.035.045.032.042s-.017-.022-.025-.032l-.048-.066c-.034-.047-.067-.1-.1-.144a4.208,4.208,0,0,1-.358-.667l.048.113a4.487,4.487,0,0,1-.3-1.126l.017.126a5.8,5.8,0,0,1-.02-1.264.474.474,0,0,0-.474-.474.486.486,0,0,0-.474.474" transform="translate(-231.719 -918.914)" fill="#56c198"/>
      <path id="Path_44504" data-name="Path 44504" d="M241.536,957.737a2.384,2.384,0,0,1-.307-.021l.126.017a2.289,2.289,0,0,1-.553-.15l.113.048a2.308,2.308,0,0,1-.376-.2c-.029-.019-.057-.04-.085-.06-.067-.048.029.03.038.03-.008,0-.033-.026-.04-.032q-.083-.069-.161-.146t-.139-.152l-.033-.04c-.035-.043.073.1.03.038-.02-.028-.04-.056-.06-.085a2.274,2.274,0,0,1-.207-.384l.048.113a2.288,2.288,0,0,1-.151-.553c.005.042.011.084.017.126a2.4,2.4,0,0,1-.021-.306.474.474,0,1,0-.948,0,2.689,2.689,0,0,0,.479,1.534,2.806,2.806,0,0,0,1.321,1.015,2.64,2.64,0,0,0,.907.157.474.474,0,1,0,0-.948" transform="translate(-236.667 -937.687)" fill="#56c198"/>
    </g>
  </g>
</svg>
