<svg xmlns="http://www.w3.org/2000/svg" width="23.385" height="20.948" viewBox="0 0 23.385 20.948">
  <g id="Group_39838" data-name="Group 39838" transform="translate(0 0)">
    <path id="Path_44466" data-name="Path 44466" d="M69.461,708.3v7.292H67.894v-5.521a1.84,1.84,0,0,1-.306.216,3.213,3.213,0,0,1-.376.184,3.374,3.374,0,0,1-.413.139,3.026,3.026,0,0,1-.422.082V709.37a6.649,6.649,0,0,0,2.134-1.07Z" transform="translate(-57.004 -698.347)" fill="#999"/>
    <path id="Path_44467" data-name="Path 44467" d="M65.589,687.762H63.494v-.732a.664.664,0,1,0-1.327,0v.732H52.659v-.732a.664.664,0,0,0-1.328,0v.732H49.237a3.52,3.52,0,0,0-3.517,3.516V703.8a3.52,3.52,0,0,0,3.517,3.516H65.589a3.521,3.521,0,0,0,3.517-3.516v-12.52a3.521,3.521,0,0,0-3.517-3.516m-18.54,6.18H67.777V703.8a2.191,2.191,0,0,1-2.188,2.188H49.237a2.191,2.191,0,0,1-2.188-2.188Zm4.947-3.457a.664.664,0,0,0,.664-.664v-.732h9.508v.732a.664.664,0,1,0,1.327,0v-.732h2.095a2.19,2.19,0,0,1,2.188,2.188v1.336H47.048v-1.336a2.191,2.191,0,0,1,2.188-2.188h2.095v.732a.664.664,0,0,0,.664.664" transform="translate(-45.72 -686.366)" fill="#999"/>
  </g>
</svg>
