<svg id="Group_39889" data-name="Group 39889" xmlns="http://www.w3.org/2000/svg" xmlns:xlink="http://www.w3.org/1999/xlink" width="19.048" height="21.202" viewBox="0 0 19.048 21.202">
  <defs>
    <clipPath id="clip-path">
      <rect id="Rectangle_7997" data-name="Rectangle 7997" width="19.048" height="21.202" fill="#fff"/>
    </clipPath>
  </defs>
  <g id="Group_39887" data-name="Group 39887" transform="translate(0 0)" clip-path="url(#clip-path)">
    <path id="Path_44528" data-name="Path 44528" d="M1.4,4.589h0A1.1,1.1,0,0,1,.208,3.581L0,1.092A.992.992,0,0,1,.911.022L1.087.007a2.022,2.022,0,0,1,2.181,1.85l.039.479A2.089,2.089,0,0,1,1.4,4.589" transform="translate(0 0)" fill="#fff"/>
    <path id="Path_44529" data-name="Path 44529" d="M1.263,11.033C1.51,12.091,3.73,21.8,3.73,21.8s-.215-1.3,3.18-1.454a20.4,20.4,0,0,0-.67-6.717c-.97-3.124-1.6-4.836-3.094-4.721s-2.209.727-1.883,2.125" transform="translate(-0.557 -4.184)" fill="#fff"/>
    <path id="Path_44530" data-name="Path 44530" d="M7.749,31.893a.528.528,0,1,1,.528-.527.527.527,0,0,1-.528.527m14.263-1.041a2.883,2.883,0,0,0-3.195-2.4C17.5,28.627,8.277,30.068,7.61,30.15a1.241,1.241,0,1,0,0,2.482s11.235-.011,12.5,0,2.1-.111,1.9-1.779" transform="translate(-2.993 -13.363)" fill="#fff"/>
    <path id="Path_44531" data-name="Path 44531" d="M8.689,33.359a.321.321,0,1,0,.321.321.321.321,0,0,0-.321-.321" transform="translate(-3.933 -15.677)" fill="#fff"/>
    <path id="Path_44532" data-name="Path 44532" d="M18.8,38.034c-.2.012-.451.018-.81.018-.275,0-.6,0-.979-.007-.558-.006-1.252-.012-2.118-.012h0c-.023,0-2.274.019-3.034.019a3.053,3.053,0,0,1-1.738-.72c.045,0,.1-.007.155-.007l1.2,0c1.557,0,4.164-.01,6.161-.01,2.112,0,2.553.007,2.629.012l.2.008.145.006a2.48,2.48,0,0,1-1.8.7m1.484-1.175c-.485-.029-9.314,0-10.013,0s-1.069.314-.527.77a3.528,3.528,0,0,0,2.111.889c.77,0,3.038-.019,3.038-.019,2.183,0,3.252.043,3.937,0a2.818,2.818,0,0,0,2.325-1.112c.471-.542-.385-.5-.87-.528" transform="translate(-4.455 -17.316)" fill="#fff"/>
  </g>
</svg>
