<svg xmlns="http://www.w3.org/2000/svg" xmlns:xlink="http://www.w3.org/1999/xlink" width="27" height="32" viewBox="0 0 27 32">
  <defs>
    <clipPath id="clip-path">
      <rect id="Rectangle_7995" data-name="Rectangle 7995" width="27" height="32" transform="translate(-864 7565)" fill="#fff" opacity="0.24"/>
    </clipPath>
  </defs>
  <g id="Mask_Group_450" data-name="Mask Group 450" transform="translate(864 -7565)" clip-path="url(#clip-path)">
    <g id="Group_39886" data-name="Group 39886" transform="translate(-862.048 7568.35)">
      <path id="Path_44505" data-name="Path 44505" d="M421.76,921.149V905.62a2.6,2.6,0,0,0-2.6-2.6h-4.872a.545.545,0,0,0-.531.421.862.862,0,0,1-.842.668h-3.664a.817.817,0,0,1-.779-.668.542.542,0,0,0-.531-.421h-4.872a2.6,2.6,0,0,0-2.6,2.6v15.53a.451.451,0,0,1-.9,0V899.8a3.5,3.5,0,0,1,3.5-3.5H419.16a3.5,3.5,0,0,1,3.5,3.5v21.344a.45.45,0,1,1-.9,0" transform="translate(-399.563 -896.302)" fill="#56c198"/>
      <path id="Path_44506" data-name="Path 44506" d="M437.262,920.4a.425.425,0,1,1-.425-.425.425.425,0,0,1,.425.425" transform="translate(-425.289 -912.827)" fill="#56c198"/>
      <path id="Path_44507" data-name="Path 44507" d="M431.028,933.748a4.067,4.067,0,0,1-2.884-1.193.18.18,0,1,1,.255-.255,3.722,3.722,0,0,0,5.258,0,.18.18,0,0,1,.255.255,4.067,4.067,0,0,1-2.884,1.193" transform="translate(-419.479 -921.397)" fill="#56c198"/>
      <path id="Path_44508" data-name="Path 44508" d="M432.8,930.9a2.976,2.976,0,0,1-2.119-.876.18.18,0,0,1,.255-.255,2.639,2.639,0,0,0,3.728,0,.18.18,0,0,1,.255.255,2.976,2.976,0,0,1-2.119.876" transform="translate(-421.249 -919.627)" fill="#56c198"/>
      <path id="Path_44509" data-name="Path 44509" d="M434.568,928.045a1.9,1.9,0,0,1-1.353-.56.181.181,0,0,1,.255-.255,1.554,1.554,0,0,0,2.2,0,.18.18,0,0,1,.255.255,1.9,1.9,0,0,1-1.353.56" transform="translate(-423.019 -917.857)" fill="#56c198"/>
      <path id="Path_44510" data-name="Path 44510" d="M436.338,925.194a.826.826,0,0,1-.588-.244.18.18,0,0,1,.255-.255.47.47,0,0,0,.666,0,.18.18,0,0,1,.255.255.827.827,0,0,1-.588.244" transform="translate(-424.789 -916.087)" fill="#56c198"/>
      <path id="Path_44511" data-name="Path 44511" d="M421.714,950.769h-5.235a.688.688,0,0,1-.1-.007c-.011,0-.073-.01-.011,0l-.073-.012a1.547,1.547,0,0,1-.193-.051l-.051-.018c-.01,0-.066-.027-.011,0a.717.717,0,0,1-.1-.05,1.551,1.551,0,0,1-.174-.106l-.043-.031c.047.036,0,0-.008-.007q-.041-.034-.079-.07a1.645,1.645,0,0,1-.142-.156c.036.044-.017-.024-.027-.038q-.035-.051-.066-.1a.648.648,0,0,1-.05-.094c-.008-.016-.041-.1-.02-.042a1.755,1.755,0,0,1-.071-.224q-.01-.045-.018-.09c0-.011-.009-.072,0-.011a.181.181,0,0,0-.006-.056c0-.044-.005-.089-.005-.134v-2.437a6.42,6.42,0,0,1,.015-.739c-.006.049,0-.026,0-.03a.387.387,0,0,1,.012-.068c.008-.038.016-.075.025-.113a2.134,2.134,0,0,1,.094-.285c-.017.042.013-.028.013-.029l.02-.042c.02-.042.042-.083.065-.123.012-.021.051-.113.073-.119,0,0-.037.039-.018.022.116-.1.22-.221.329-.331l.353-.355a1.782,1.782,0,0,0,.4-.632c.091-.239.18-.478.27-.717l.427-1.132.134-.355.023-.06c0-.008.03-.068.006-.017a1.032,1.032,0,0,1,.051-.1c.018-.03.032-.055.049-.082l.032-.047.022-.031h0a1.664,1.664,0,0,1,.143-.15l.043-.037c.007-.006.057-.043.012-.01.035-.026.071-.05.109-.073s.054-.031.082-.046l.05-.025c.009,0,.067-.026.013-.006a1.522,1.522,0,0,1,.217-.066l.056-.011c.01,0,.073-.008.014,0,.039,0,.077-.007.116-.008h6.5l.058.006c-.061-.007.022,0,.033.007a1.3,1.3,0,0,1,.2.057c.008,0,.067.028.015.005l.052.024c.037.018.073.038.108.059s.058.038.087.058c.052.036-.035-.031.013.01l.043.037a1.337,1.337,0,0,1,.157.167c-.034-.043,0,.008.009.015a.266.266,0,0,1,.032.048c.021.033.04.067.058.1a.809.809,0,0,1,.036.076q.141.316.28.635l.852,1.935a3.4,3.4,0,0,0,.483.691l.315.4.022.029c-.024-.032.027.038.031.043.03.043.059.087.086.132a2.169,2.169,0,0,1,.114.218s.029.07.012.026l.024.062c.018.049.034.1.049.148a2.172,2.172,0,0,1,.055.24s.011.078,0,.026c0,.022.005.045.007.067,0,.045.007.089.008.135s0,.07,0,.1v2.811a.216.216,0,0,1-.005.056c-.005.062.01-.05,0,.011a1.762,1.762,0,0,1-.05.213.973.973,0,0,1-.036.1c-.02.057.022-.044,0,.01l-.022.049a1.538,1.538,0,0,1-.106.184l-.03.044c-.006.008-.043.055-.006.009-.018.023-.037.045-.057.068a1.54,1.54,0,0,1-.164.159l-.028.022c.046-.038,0,0-.009.006-.029.021-.058.04-.088.059a1.736,1.736,0,0,1-.188.1c-.055.025.047-.017-.01,0l-.051.019c-.034.012-.068.023-.1.032s-.059.015-.089.021l-.054.01-.036.006h.007c-.06,0-.119.009-.179.009h-5.2a.234.234,0,1,0,0,.468h5.209a1.772,1.772,0,0,0,1.773-1.772v-2.416a3.333,3.333,0,0,0-.112-1.044,2.553,2.553,0,0,0-.435-.8l-.318-.406-.29-.368-.007-.008c.046.054.017.023.008.009s-.027-.039-.039-.06a1.058,1.058,0,0,1-.057-.111l-.03-.069-.374-.85c-.251-.571-.5-1.143-.754-1.712a1.561,1.561,0,0,0-1.416-.9h-6.3a1.641,1.641,0,0,0-1.333.649,3.2,3.2,0,0,0-.376.823c-.233.617-.473,1.232-.7,1.853l-.009.023c.017-.044-.011.023-.012.026l-.03.06c-.01.02-.036.066-.056.1a.487.487,0,0,1-.037.056l-.026.036c.014-.018.012-.016,0,.005-.044.052-.091.1-.139.149l-.4.4a1.919,1.919,0,0,0-.687,1.443c-.02.235-.008.475-.008.71v2.444a1.775,1.775,0,0,0,.273.907,1.8,1.8,0,0,0,1.5.827h5.186a.234.234,0,0,0,0-.468" transform="translate(-410.166 -927.319)" fill="#56c198"/>
      <path id="Path_44512" data-name="Path 44512" d="M426.591,949h.686c.015,0,.056.011.006,0l.037.008.054.017c-.048-.014,0,0,.012.007l.04.024c.014.008.041.035,0,0,.023.021.044.042.065.065-.006-.006-.026-.039,0,0,.008.013.017.026.024.04s.015.028.021.042c-.024-.049,0,0,0,.014a.4.4,0,0,0,.013.056h0v.276c0-.026-.007.028-.008.029-.009.04,0,.012,0,0,0,.009-.041.062-.025.045s-.024.022-.023.021h0l-.04.025-.842.522-.137.085a.647.647,0,0,0-.175.208l-.025.036s-.045.06-.015.022c-.02.025-.04.05-.061.074a1.857,1.857,0,0,1-.156.159c-.026.024-.053.046-.08.069s-.01.008,0,0l-.051.037a1.831,1.831,0,0,1-.178.112l-.094.049-.048.022c-.036.018.05-.019-.012.005a1.96,1.96,0,0,1-.2.068c-.068.019-.138.033-.208.046s.029,0-.012,0l-.053.006c-.04,0-.079.006-.119.007h-8.242c-.263,0-.53.012-.793,0a1.046,1.046,0,0,1-.111-.009c.01,0,.043.007,0,0l-.054-.009a1.987,1.987,0,0,1-.223-.055c-.035-.011-.07-.023-.1-.036l-.041-.016c.046.018-.021-.009-.024-.011a1.96,1.96,0,0,1-.193-.1c-.031-.019-.062-.038-.092-.059l-.045-.031c-.008-.006-.046-.035-.014-.01a1.856,1.856,0,0,1-.172-.154c-.024-.024-.046-.048-.068-.073a.517.517,0,0,0-.072-.086c.028.018.029.038.009.011l-.038-.049a1.055,1.055,0,0,0-.188-.218l-.085-.06-.417-.3-.377-.268-.029-.02c-.007-.006,0-.005.01.007s-.046-.056-.02-.018c-.006-.009-.033-.063-.016-.02-.005-.014-.008-.027-.013-.041-.018-.055,0,.035,0-.024v-.276c0-.056-.013.022,0-.005a.278.278,0,0,0,.011-.047c.006-.02.02-.051,0-.014a.863.863,0,0,1,.046-.082c.027-.045-.021.012,0,0a.286.286,0,0,0,.032-.034l.027-.025c-.04.036,0,0,.013-.007l.032-.019c.019-.01.05-.02.012-.007a.854.854,0,0,1,.092-.025c-.055.012.019,0,.036,0h.679a.234.234,0,0,0,0-.468h-.591a.947.947,0,0,0-.357.05.8.8,0,0,0-.462.467,1.175,1.175,0,0,0-.046.427.637.637,0,0,0,.227.536c.144.111.3.212.444.317l.508.361-.084-.084.174.225a2.19,2.19,0,0,0,.479.455,2.138,2.138,0,0,0,1.21.377h8.823a2.187,2.187,0,0,0,1.521-.591,2.113,2.113,0,0,0,.368-.466l-.084.084,1.013-.629a.651.651,0,0,0,.3-.367,1.25,1.25,0,0,0,.026-.391.789.789,0,0,0-.785-.781h-.648a.234.234,0,1,0,0,.468" transform="translate(-409.017 -932.764)" fill="#56c198"/>
      <path id="Path_44513" data-name="Path 44513" d="M419.046,962.247l.223.366c.028.046.056.093.085.139a1.2,1.2,0,0,0,.366.364,1.227,1.227,0,0,0,.668.177h.9a.234.234,0,0,0,0-.468h-.877a1.552,1.552,0,0,1-.2-.009l.062.009a.975.975,0,0,1-.231-.063l.056.023a.949.949,0,0,1-.155-.083l-.033-.023c-.029-.02.019.015.02.017l-.018-.015c-.024-.019-.046-.04-.068-.061a.855.855,0,0,1-.058-.064c-.034-.04.027.037,0,.006l-.03-.043-.027-.043-.214-.35-.071-.117a.234.234,0,0,0-.4.236" transform="translate(-413.142 -942.093)" fill="#56c198"/>
      <path id="Path_44514" data-name="Path 44514" d="M450.539,962.265l-.176.289-.1.165-.019.031c-.012.02-.025.04-.039.059l-.01.014c-.016.023.034-.042.015-.02l-.033.04q-.033.036-.069.069l-.039.033c-.012.01-.034.021.021-.016l-.018.013a.947.947,0,0,1-.178.1l.056-.024a.972.972,0,0,1-.231.063l.062-.009a3.1,3.1,0,0,1-.4.009H448.7a.234.234,0,1,0,0,.468h.977a1.2,1.2,0,0,0,.5-.127,1.1,1.1,0,0,0,.364-.291,1.906,1.906,0,0,0,.145-.211l.254-.417a.234.234,0,0,0-.4-.236" transform="translate(-433.702 -942.273)" fill="#56c198"/>
      <path id="Path_44515" data-name="Path 44515" d="M428.5,970.912l.245-.5.386-.792.09-.185-.2.116h3.921l-.2-.116.272.5.433.8.1.182a.236.236,0,0,0,.32.084.239.239,0,0,0,.084-.32l-.272-.5-.434-.8-.1-.182a.233.233,0,0,0-.2-.115h-3.928a.231.231,0,0,0-.2.115l-.244.5-.386.792-.09.185a.234.234,0,1,0,.4.236" transform="translate(-419.464 -947.111)" fill="#56c198"/>
      <path id="Path_44516" data-name="Path 44516" d="M432.8,965.692h2.719a.234.234,0,0,0,0-.468H432.8a.234.234,0,1,0,0,.468" transform="translate(-422.603 -944.418)" fill="#56c198"/>
      <path id="Path_44517" data-name="Path 44517" d="M414.763,970.381v2.007a.764.764,0,0,0,.783.763h2.2a.767.767,0,0,0,.443-.131.78.78,0,0,0,.337-.633v-.725a.234.234,0,1,0-.468,0v.662a1.063,1.063,0,0,1-.005.138.344.344,0,0,1,.009-.062.581.581,0,0,1-.036.131l.023-.056a.537.537,0,0,1-.046.086.148.148,0,0,1-.015.021s.039-.047.018-.023-.022.025-.034.037l-.034.031c-.014.013-.037.019.019-.015l-.017.012a.549.549,0,0,1-.09.049l.056-.024a.587.587,0,0,1-.131.036l.062-.008a2.1,2.1,0,0,1-.277.005h-1.783a2.522,2.522,0,0,1-.332-.005l.062.008a.582.582,0,0,1-.13-.036l.056.024a.574.574,0,0,1-.086-.046l-.021-.014s.047.039.023.018-.026-.022-.038-.034l-.031-.033c-.013-.015-.02-.038.015.019,0-.006-.008-.011-.011-.016a.555.555,0,0,1-.049-.09l.024.056a.57.57,0,0,1-.036-.131.422.422,0,0,0,.008.062,1.883,1.883,0,0,1-.005-.248v-1.834a.234.234,0,0,0-.468,0" transform="translate(-410.174 -947.855)" fill="#56c198"/>
      <path id="Path_44518" data-name="Path 44518" d="M451.765,970.381v1.787a2.23,2.23,0,0,1-.005.294l.008-.062a.557.557,0,0,1-.036.131l.024-.056a.544.544,0,0,1-.046.086.158.158,0,0,1-.015.021s.039-.047.018-.023l-.034.037-.034.031c-.014.013-.037.019.019-.015l-.016.012a.536.536,0,0,1-.09.049l.056-.024a.577.577,0,0,1-.131.036l.062-.008a2.1,2.1,0,0,1-.277.005h-1.783a2.5,2.5,0,0,1-.332,0l.062.008a.572.572,0,0,1-.13-.036l.056.024a.569.569,0,0,1-.086-.046l-.021-.014s.047.039.023.018-.025-.022-.037-.034l-.031-.033c-.013-.015-.019-.038.015.019l-.012-.016a.523.523,0,0,1-.049-.09l.023.056a.566.566,0,0,1-.036-.131c0,.021.006.042.008.062a2.214,2.214,0,0,1-.005-.287v-.514a.234.234,0,1,0-.467,0v.725a.8.8,0,0,0,.088.357.765.765,0,0,0,.62.4,1.367,1.367,0,0,0,.137,0h1.82c.128,0,.26.009.387,0a.772.772,0,0,0,.621-.4.836.836,0,0,0,.093-.4V970.38a.234.234,0,0,0-.467,0" transform="translate(-433.703 -947.855)" fill="#56c198"/>
    </g>
  </g>
</svg>
