<svg id="_1" data-name="1" xmlns="http://www.w3.org/2000/svg" viewBox="0 0 58.89 59.31"><defs><style>.cls-1{fill:#231f20;}</style></defs><title>whatsapp-icon1</title><path class="cls-1" d="M29.16,0C13.87,0,1.48,12.68,1.48,28.34A28.71,28.71,0,0,0,7.33,45.78L1.87,59.31l14.2-6A27,27,0,0,0,29.16,56.7C44.44,56.7,56.83,44,56.83,28.34S44.44,0,29.16,0Zm16.9,41.87a6.17,6.17,0,0,1-1.27,1.43l-.17.19a7.65,7.65,0,0,1-5.53,2c-5.28,0-12.08-3.55-17.73-9.25a33.38,33.38,0,0,1-8.3-13c-1.37-4.45-.91-8.1,1.3-10.29l.1-.09A6.1,6.1,0,0,1,16,11.47a5.41,5.41,0,0,1,2.67-.89,2.06,2.06,0,0,1,1.71.7L23,15.46l2.57,4.12a2.1,2.1,0,0,1-.07,1.9,5.37,5.37,0,0,1-2,2,5.38,5.38,0,0,1-2.67.89,2.18,2.18,0,0,1-.95-.18,37.25,37.25,0,0,0,5.88,7.66,36.93,36.93,0,0,0,7.61,6,2.16,2.16,0,0,1-.19-1,6.05,6.05,0,0,1,3-4.62,2.62,2.62,0,0,1,2.14.19l3.86,2.38L46,37.22a2.77,2.77,0,0,1,.94,2A5.41,5.41,0,0,1,46.06,41.86Z"/></svg>