<svg id="_1" data-name="1" xmlns="http://www.w3.org/2000/svg" viewBox="0 0 58.89 59.31"><title>phone-icon2</title><g id="_9" data-name="9"><path d="M41.43,22.36a14.35,14.35,0,0,1,1.45,6.29A2.13,2.13,0,0,0,45,30.79h0a2.15,2.15,0,0,0,2.15-2.14,18.77,18.77,0,0,0-8.81-15.88,18.81,18.81,0,0,0-9.69-2.85,2.15,2.15,0,0,0-.06,4.29A14.4,14.4,0,0,1,41.43,22.36Z"/><path d="M53.88,16.33A28.27,28.27,0,0,0,28.66.38h0a2.15,2.15,0,0,0,0,4.29,24,24,0,0,1,23.8,24,2.14,2.14,0,0,0,2.14,2.14h0a2.14,2.14,0,0,0,2.14-2.14A28.08,28.08,0,0,0,53.88,16.33Z"/><path d="M46.65,38.58A4.06,4.06,0,0,0,43.7,37.3a4,4,0,0,0-2.28.71l-4.55,2.93c-.92-.39-4-2.11-10.95-9.54s-8.45-10.65-8.76-11.58l3.24-4.34a4,4,0,0,0-.21-5.26L13.09,2.6a4.18,4.18,0,0,0-6.31.22l-2,2.43A11.46,11.46,0,0,0,2.15,13a23.29,23.29,0,0,0,2.17,8.94c2.39,5.5,6.83,11.89,12.51,18A77.93,77.93,0,0,0,29.91,51.26c5.22,3.49,9.89,5.26,13.86,5.26a10.75,10.75,0,0,0,6.78-2.25l2.56-1.79a4.2,4.2,0,0,0,.65-6.28Z"/></g></svg>